<svg width="102" height="100" viewBox="0 0 102 100" fill="none" xmlns="http://www.w3.org/2000/svg">
<g id="chrome 2">
<g id="chrome">
<path id="Path" d="M50.768 0.00943446C50.768 0.00943446 80.7786 -1.31478 96.6843 28.2587C88.2817 28.2587 48.2166 28.2587 48.2166 28.2587C48.2166 28.2587 39.0632 27.9633 31.2603 38.8532C29.0096 43.4141 26.6093 48.1227 29.3102 57.3915C25.4091 50.9188 8.6024 22.2266 8.6024 22.2266C8.6024 22.2266 20.4575 1.186 50.768 0.00943446Z" fill="#E16B5A"/>
<path id="Path_2" d="M95.1223 75.0954C95.1223 75.0954 81.2837 101.238 47.2105 99.9524C51.4138 92.8189 71.4503 58.7993 71.4503 58.7993C71.4503 58.7993 76.2875 51.1735 70.5755 39.1032C67.6717 34.911 58.8755 30.5173 49.338 28.1751C57.0081 28.1001 96.5888 28.1798 96.5888 28.1798C96.5888 28.1798 109.241 48.7696 95.1223 75.0954Z" fill="#FFD464"/>
<path id="Path_3" d="M6.62761 75.2938C6.62761 75.2938 -9.54207 50.4688 8.63183 22.1782C12.8319 29.3149 32.8573 63.3407 32.8573 63.3407C32.8573 63.3407 37.1711 71.261 50.6892 72.4454C55.8421 72.0767 61.2026 71.7634 68.04 64.8376C64.2701 71.3868 47.3274 99.9993 47.3274 99.9993C47.3274 99.9993 22.8172 100.448 6.62761 75.2938Z" fill="#74B340"/>
<ellipse id="Oval" cx="50.6463" cy="50.4062" rx="23.0643" ry="22.6562" fill="white"/>
<ellipse id="Oval_2" cx="50.6383" cy="50.4062" rx="18.2924" ry="17.9688" fill="#2995CC"/>
<path id="Path_4" d="M50.6431 32.4414C50.2788 32.4414 49.9186 32.4547 49.5607 32.475C59.1586 33.0258 66.7698 40.8437 66.7698 50.4094C66.7698 59.9766 59.1586 67.7953 49.5607 68.3461C49.9194 68.3656 50.2796 68.3797 50.6431 68.3797C60.7445 68.3797 68.9355 60.3336 68.9355 50.4094C68.9355 40.4867 60.7445 32.4414 50.6431 32.4414Z" fill="#268CBF"/>
</g>
</g>
</svg>
